<svg xmlns="http://www.w3.org/2000/svg" viewBox="0 0 100 100" preserveAspectRatio="xMidYMid" width="61" height="61" style="shape-rendering: auto; display: block; background: rgb(231, 201, 128);" xmlns:xlink="http://www.w3.org/1999/xlink"><g><g transform="rotate(0 50 50)">
  <rect fill="#5e3216" height="13" width="4" ry="2.08" rx="2" y="22.5" x="48">
    <animate repeatCount="indefinite" begin="-0.9972299168975068s" dur="1.0526315789473684s" keyTimes="0;1" values="1;0" attributeName="opacity"></animate>
  </rect>
</g><g transform="rotate(18.94736842105263 50 50)">
  <rect fill="#5e3216" height="13" width="4" ry="2.08" rx="2" y="22.5" x="48">
    <animate repeatCount="indefinite" begin="-0.9418282548476454s" dur="1.0526315789473684s" keyTimes="0;1" values="1;0" attributeName="opacity"></animate>
  </rect>
</g><g transform="rotate(37.89473684210526 50 50)">
  <rect fill="#5e3216" height="13" width="4" ry="2.08" rx="2" y="22.5" x="48">
    <animate repeatCount="indefinite" begin="-0.8864265927977839s" dur="1.0526315789473684s" keyTimes="0;1" values="1;0" attributeName="opacity"></animate>
  </rect>
</g><g transform="rotate(56.8421052631579 50 50)">
  <rect fill="#5e3216" height="13" width="4" ry="2.08" rx="2" y="22.5" x="48">
    <animate repeatCount="indefinite" begin="-0.8310249307479224s" dur="1.0526315789473684s" keyTimes="0;1" values="1;0" attributeName="opacity"></animate>
  </rect>
</g><g transform="rotate(75.78947368421052 50 50)">
  <rect fill="#5e3216" height="13" width="4" ry="2.08" rx="2" y="22.5" x="48">
    <animate repeatCount="indefinite" begin="-0.7756232686980609s" dur="1.0526315789473684s" keyTimes="0;1" values="1;0" attributeName="opacity"></animate>
  </rect>
</g><g transform="rotate(94.73684210526316 50 50)">
  <rect fill="#5e3216" height="13" width="4" ry="2.08" rx="2" y="22.5" x="48">
    <animate repeatCount="indefinite" begin="-0.7202216066481995s" dur="1.0526315789473684s" keyTimes="0;1" values="1;0" attributeName="opacity"></animate>
  </rect>
</g><g transform="rotate(113.6842105263158 50 50)">
  <rect fill="#5e3216" height="13" width="4" ry="2.08" rx="2" y="22.5" x="48">
    <animate repeatCount="indefinite" begin="-0.6648199445983379s" dur="1.0526315789473684s" keyTimes="0;1" values="1;0" attributeName="opacity"></animate>
  </rect>
</g><g transform="rotate(132.6315789473684 50 50)">
  <rect fill="#5e3216" height="13" width="4" ry="2.08" rx="2" y="22.5" x="48">
    <animate repeatCount="indefinite" begin="-0.6094182825484764s" dur="1.0526315789473684s" keyTimes="0;1" values="1;0" attributeName="opacity"></animate>
  </rect>
</g><g transform="rotate(151.57894736842104 50 50)">
  <rect fill="#5e3216" height="13" width="4" ry="2.08" rx="2" y="22.5" x="48">
    <animate repeatCount="indefinite" begin="-0.5540166204986149s" dur="1.0526315789473684s" keyTimes="0;1" values="1;0" attributeName="opacity"></animate>
  </rect>
</g><g transform="rotate(170.52631578947367 50 50)">
  <rect fill="#5e3216" height="13" width="4" ry="2.08" rx="2" y="22.5" x="48">
    <animate repeatCount="indefinite" begin="-0.4986149584487534s" dur="1.0526315789473684s" keyTimes="0;1" values="1;0" attributeName="opacity"></animate>
  </rect>
</g><g transform="rotate(189.47368421052633 50 50)">
  <rect fill="#5e3216" height="13" width="4" ry="2.08" rx="2" y="22.5" x="48">
    <animate repeatCount="indefinite" begin="-0.44321329639889195s" dur="1.0526315789473684s" keyTimes="0;1" values="1;0" attributeName="opacity"></animate>
  </rect>
</g><g transform="rotate(208.42105263157896 50 50)">
  <rect fill="#5e3216" height="13" width="4" ry="2.08" rx="2" y="22.5" x="48">
    <animate repeatCount="indefinite" begin="-0.38781163434903043s" dur="1.0526315789473684s" keyTimes="0;1" values="1;0" attributeName="opacity"></animate>
  </rect>
</g><g transform="rotate(227.3684210526316 50 50)">
  <rect fill="#5e3216" height="13" width="4" ry="2.08" rx="2" y="22.5" x="48">
    <animate repeatCount="indefinite" begin="-0.33240997229916897s" dur="1.0526315789473684s" keyTimes="0;1" values="1;0" attributeName="opacity"></animate>
  </rect>
</g><g transform="rotate(246.31578947368422 50 50)">
  <rect fill="#5e3216" height="13" width="4" ry="2.08" rx="2" y="22.5" x="48">
    <animate repeatCount="indefinite" begin="-0.27700831024930744s" dur="1.0526315789473684s" keyTimes="0;1" values="1;0" attributeName="opacity"></animate>
  </rect>
</g><g transform="rotate(265.2631578947368 50 50)">
  <rect fill="#5e3216" height="13" width="4" ry="2.08" rx="2" y="22.5" x="48">
    <animate repeatCount="indefinite" begin="-0.22160664819944598s" dur="1.0526315789473684s" keyTimes="0;1" values="1;0" attributeName="opacity"></animate>
  </rect>
</g><g transform="rotate(284.2105263157895 50 50)">
  <rect fill="#5e3216" height="13" width="4" ry="2.08" rx="2" y="22.5" x="48">
    <animate repeatCount="indefinite" begin="-0.16620498614958448s" dur="1.0526315789473684s" keyTimes="0;1" values="1;0" attributeName="opacity"></animate>
  </rect>
</g><g transform="rotate(303.1578947368421 50 50)">
  <rect fill="#5e3216" height="13" width="4" ry="2.08" rx="2" y="22.5" x="48">
    <animate repeatCount="indefinite" begin="-0.11080332409972299s" dur="1.0526315789473684s" keyTimes="0;1" values="1;0" attributeName="opacity"></animate>
  </rect>
</g><g transform="rotate(322.10526315789474 50 50)">
  <rect fill="#5e3216" height="13" width="4" ry="2.08" rx="2" y="22.5" x="48">
    <animate repeatCount="indefinite" begin="-0.055401662049861494s" dur="1.0526315789473684s" keyTimes="0;1" values="1;0" attributeName="opacity"></animate>
  </rect>
</g><g transform="rotate(341.05263157894734 50 50)">
  <rect fill="#5e3216" height="13" width="4" ry="2.08" rx="2" y="22.5" x="48">
    <animate repeatCount="indefinite" begin="0s" dur="1.0526315789473684s" keyTimes="0;1" values="1;0" attributeName="opacity"></animate>
  </rect>
</g><g></g></g><!-- [ldio] generated by https://loading.io --></svg>